<mxfile host="65bd71144e">
    <diagram id="ihzNpeIGh2DLywq78WpG" name="Page-1">
        <mxGraphModel dx="594" dy="561" grid="1" gridSize="10" guides="1" tooltips="1" connect="1" arrows="1" fold="1" page="1" pageScale="1" pageWidth="850" pageHeight="1100" math="0" shadow="0">
            <root>
                <mxCell id="0"/>
                <mxCell id="1" parent="0"/>
                <mxCell id="2" value="Fahrenheit to Celsius" style="swimlane;" vertex="1" parent="1">
                    <mxGeometry x="190" y="180" width="370" height="250" as="geometry"/>
                </mxCell>
                <mxCell id="3" value="Calculate" style="rounded=1;whiteSpace=wrap;html=1;" vertex="1" parent="2">
                    <mxGeometry x="20" y="150" width="90" height="30" as="geometry"/>
                </mxCell>
                <mxCell id="4" value="The temperature is ... C" style="text;html=1;strokeColor=none;fillColor=none;align=center;verticalAlign=middle;whiteSpace=wrap;rounded=0;" vertex="1" parent="2">
                    <mxGeometry x="10" y="180" width="145" height="30" as="geometry"/>
                </mxCell>
                <mxCell id="5" value="Insert number" style="rounded=0;whiteSpace=wrap;html=1;align=left;" vertex="1" parent="2">
                    <mxGeometry x="20" y="100" width="120" height="20" as="geometry"/>
                </mxCell>
            </root>
        </mxGraphModel>
    </diagram>
</mxfile>